<svg width="38" height="24" viewBox="0 0 38 24" fill="none" xmlns="http://www.w3.org/2000/svg">
<path fill-rule="evenodd" clip-rule="evenodd" d="M17.4167 5.1C17.4167 5.94684 16.7078 6.63333 15.8333 6.63333L1.58333 6.63333C0.708883 6.63333 0 5.94684 0 5.1L0 2.03333C0 1.1865 0.708882 0.500001 1.58333 0.500001L15.8333 0.500001C16.7078 0.500001 17.4167 1.1865 17.4167 2.03333V5.1Z" fill="#0E0E0E"/>
<path fill-rule="evenodd" clip-rule="evenodd" d="M8.70833 17.98C10.3115 17.98 11.6111 16.7214 11.6111 15.1689V9.7C11.6111 8.85316 12.32 8.16667 13.1944 8.16667L15.8333 8.16667C16.7078 8.16667 17.4167 8.85316 17.4167 9.7L17.4167 15.8333C17.4167 20.0675 13.8723 23.5 9.5 23.5H7.91667C3.54441 23.5 0 20.0675 0 15.8333L0 15.0667C0 14.2198 0.708884 13.5333 1.58333 13.5333H4.275C5.1203 13.5333 5.80556 14.1969 5.80556 15.0156V15.1689C5.80556 16.7214 7.10517 17.98 8.70833 17.98Z" fill="#0E0E0E"/>
<path fill-rule="evenodd" clip-rule="evenodd" d="M37.1162 7.59914C37.6997 8.99438 38 10.4898 38 12C38 13.5102 37.6997 15.0056 37.1162 16.4009C36.5326 17.7961 35.6774 19.0639 34.5992 20.1317C33.521 21.1996 32.241 22.0467 30.8323 22.6246C29.4235 23.2025 27.9137 23.5 26.3889 23.5H18.4722C17.2769 23.5 16.5127 22.2665 17.0752 21.2451L18.5529 18.5618C18.8281 18.0621 19.3653 17.75 19.95 17.75H26.3889C27.1513 17.75 27.9062 17.6013 28.6106 17.3123C29.3149 17.0233 29.9549 16.5998 30.494 16.0659C31.0331 15.5319 31.4608 14.898 31.7525 14.2004C32.0443 13.5028 32.1944 12.7551 32.1944 12C32.1944 11.2449 32.0443 10.4972 31.7525 9.79957C31.4608 9.10195 31.0331 8.46807 30.494 7.93414C29.9549 7.4002 29.3149 6.97666 28.6106 6.68769C27.9062 6.39873 27.1513 6.25 26.3889 6.25L20.5833 6.25C19.7089 6.25 19 5.5635 19 4.71667V2.03333C19 1.1865 19.7089 0.5 20.5833 0.5L26.3889 0.5C27.9137 0.5 29.4235 0.797456 30.8323 1.37539C32.241 1.95331 33.521 2.8004 34.5992 3.86827C35.6774 4.93615 36.5326 6.2039 37.1162 7.59914Z" fill="#0E0E0E"/>
</svg>
